# xmcd
#
# Track frame offsets:
#	150
#	30832
#	48445
#	65437
#	90647
#	111245
#	130205
#	155840
#	174965
#	197450
#	217477
#	244240
#	265612
#
# Disc length: 3844
#
# Revision: 5
# Processed by: cddbd v1.5.1PL0 Copyright (c) Steve Scherf et al.
# Submitted via: CDex 1.50beta9
# Normalized: r4:DSETVAR1
#
DISCID=b40f020d
DTITLE=Various Artist - Best of Smooth Jazz Vol. 1
DYEAR=1998
DGENRE=Jazz
TTITLE0=Bob James and David Sanborn - Maputo
TTITLE1=Joe Sample - Hippies On A Corner
TTITLE2=Al Jarreau - We're In This Love Together
TTITLE3=George Benson - Breezin
TTITLE4=Yellowjackets - Daddy's Gonna Miss You
TTITLE5=Randy Crawford - Rio De Janeiro Blue
TTITLE6=Bob James - Angela (Theme From TAXI)
TTITLE7=Earl Klugh - Midnight In San Juan
TTITLE8=David Sanborn - The Dream
TTITLE9=George Duke - No Rhyme, No Reason
TTITLE10=Fourplay - 101 Eastbound
TTITLE11=Michael Franks - The Lady Wants To Know
TTITLE12=Boney James - Nothin' But Love
EXTD=YEAR: 1998
EXTT0=Bob James And David Sanborn\n
EXTT1=Joe Sample\n
EXTT2=Al Jarreau\n
EXTT3=George Benson\n
EXTT4=Yellowjackets\n
EXTT5=Randy Crawford\n
EXTT6=Bob James\n
EXTT7=Earl Klugh\n
EXTT8=David Sanborn\n
EXTT9=George Duke\n
EXTT10=Fourplay\n
EXTT11=Michael Franks\n
EXTT12=Boney James\n
PLAYORDER=
